<svg width="24" height="24" viewBox="0 0 24 24" fill="none" xmlns="http://www.w3.org/2000/svg">
<path d="M21 5.97986C17.67 5.64986 14.32 5.47986 10.98 5.47986C9 5.47986 7.02 5.57986 5.04 5.77986L3 5.97986" stroke="#989898" stroke-width="1.5" stroke-linecap="round" stroke-linejoin="round"/>
<path d="M8.5 4.96988L8.72 3.65988C8.88 2.70988 9 1.99988 10.69 1.99988H13.31C15 1.99988 15.13 2.74988 15.28 3.66988L15.5 4.96988" stroke="#989898" stroke-width="1.5" stroke-linecap="round" stroke-linejoin="round"/>
<path d="M18.85 9.13989L18.2 19.2099C18.09 20.7799 18 21.9999 15.21 21.9999H8.78999C5.99999 21.9999 5.90999 20.7799 5.79999 19.2099L5.14999 9.13989" stroke="#989898" stroke-width="1.5" stroke-linecap="round" stroke-linejoin="round"/>
<path d="M10.33 16.4999H13.66" stroke="#989898" stroke-width="1.5" stroke-linecap="round" stroke-linejoin="round"/>
<path d="M9.5 12.4999H14.5" stroke="#989898" stroke-width="1.5" stroke-linecap="round" stroke-linejoin="round"/>
</svg>