<svg width="19" height="19" viewBox="0 0 19 19" fill="none" xmlns="http://www.w3.org/2000/svg">
<path d="M8.70834 1.58337H7.12501C3.16668 1.58337 1.58334 3.16671 1.58334 7.12504V11.875C1.58334 15.8334 3.16668 17.4167 7.12501 17.4167H11.875C15.8333 17.4167 17.4167 15.8334 17.4167 11.875V10.2917" stroke="#989898" stroke-width="1.5" stroke-linecap="round" stroke-linejoin="round"/>
<path d="M12.6983 2.39079L6.46 8.62912C6.2225 8.86662 5.985 9.33371 5.9375 9.67412L5.59708 12.057C5.47041 12.92 6.08 13.5216 6.94291 13.4029L9.32583 13.0625C9.65833 13.015 10.1254 12.7775 10.3708 12.54L16.6092 6.30162C17.6858 5.22496 18.1925 3.97412 16.6092 2.39079C15.0258 0.807456 13.775 1.31412 12.6983 2.39079Z" stroke="#989898" stroke-width="1.5" stroke-miterlimit="10" stroke-linecap="round" stroke-linejoin="round"/>
<path d="M11.8037 3.2854C12.3342 5.17748 13.8146 6.6579 15.7146 7.19623" stroke="#989898" stroke-width="1.5" stroke-miterlimit="10" stroke-linecap="round" stroke-linejoin="round"/>
</svg>