<svg width="234" height="60" viewBox="0 0 234 60" fill="none" xmlns="http://www.w3.org/2000/svg">
<path d="M22.68 15.92V21.4H15.24V44H8.4V21.4H0.96V15.92H22.68ZM36.2728 44.32C34.0861 44.32 32.1128 43.8533 30.3528 42.92C28.6195 41.9867 27.2461 40.6533 26.2328 38.92C25.2461 37.1867 24.7528 35.16 24.7528 32.84C24.7528 30.5467 25.2595 28.5333 26.2728 26.8C27.2861 25.04 28.6728 23.6933 30.4328 22.76C32.1928 21.8267 34.1661 21.36 36.3528 21.36C38.5395 21.36 40.5128 21.8267 42.2728 22.76C44.0328 23.6933 45.4195 25.04 46.4328 26.8C47.4461 28.5333 47.9528 30.5467 47.9528 32.84C47.9528 35.1333 47.4328 37.16 46.3928 38.92C45.3795 40.6533 43.9795 41.9867 42.1928 42.92C40.4328 43.8533 38.4595 44.32 36.2728 44.32ZM36.2728 38.4C37.5795 38.4 38.6861 37.92 39.5928 36.96C40.5261 36 40.9928 34.6267 40.9928 32.84C40.9928 31.0533 40.5395 29.68 39.6328 28.72C38.7528 27.76 37.6595 27.28 36.3528 27.28C35.0195 27.28 33.9128 27.76 33.0328 28.72C32.1528 29.6533 31.7128 31.0267 31.7128 32.84C31.7128 34.6267 32.1395 36 32.9928 36.96C33.8728 37.92 34.9661 38.4 36.2728 38.4Z" fill="#4772FA"/>
<path d="M54.7816 44.32C53.5816 44.32 52.5949 43.9733 51.8216 43.28C51.0749 42.56 50.7016 41.68 50.7016 40.64C50.7016 39.5733 51.0749 38.68 51.8216 37.96C52.5949 37.24 53.5816 36.88 54.7816 36.88C55.9549 36.88 56.9149 37.24 57.6616 37.96C58.4349 38.68 58.8216 39.5733 58.8216 40.64C58.8216 41.68 58.4349 42.56 57.6616 43.28C56.9149 43.9733 55.9549 44.32 54.7816 44.32ZM61.5106 32.8C61.5106 30.5067 61.9373 28.4933 62.7906 26.76C63.6706 25.0267 64.8573 23.6933 66.3506 22.76C67.844 21.8267 69.5106 21.36 71.3506 21.36C72.8173 21.36 74.1506 21.6667 75.3506 22.28C76.5773 22.8933 77.5373 23.72 78.2306 24.76V14.4H85.0706V44H78.2306V40.8C77.5906 41.8667 76.6706 42.72 75.4706 43.36C74.2973 44 72.924 44.32 71.3506 44.32C69.5106 44.32 67.844 43.8533 66.3506 42.92C64.8573 41.96 63.6706 40.6133 62.7906 38.88C61.9373 37.12 61.5106 35.0933 61.5106 32.8ZM78.2306 32.84C78.2306 31.1333 77.7506 29.7867 76.7906 28.8C75.8573 27.8133 74.7106 27.32 73.3506 27.32C71.9906 27.32 70.8306 27.8133 69.8706 28.8C68.9373 29.76 68.4706 31.0933 68.4706 32.8C68.4706 34.5067 68.9373 35.8667 69.8706 36.88C70.8306 37.8667 71.9906 38.36 73.3506 38.36C74.7106 38.36 75.8573 37.8667 76.7906 36.88C77.7506 35.8933 78.2306 34.5467 78.2306 32.84ZM100.179 44.32C97.9924 44.32 96.0191 43.8533 94.2591 42.92C92.5257 41.9867 91.1524 40.6533 90.1391 38.92C89.1524 37.1867 88.6591 35.16 88.6591 32.84C88.6591 30.5467 89.1657 28.5333 90.1791 26.8C91.1924 25.04 92.5791 23.6933 94.3391 22.76C96.0991 21.8267 98.0724 21.36 100.259 21.36C102.446 21.36 104.419 21.8267 106.179 22.76C107.939 23.6933 109.326 25.04 110.339 26.8C111.352 28.5333 111.859 30.5467 111.859 32.84C111.859 35.1333 111.339 37.16 110.299 38.92C109.286 40.6533 107.886 41.9867 106.099 42.92C104.339 43.8533 102.366 44.32 100.179 44.32ZM100.179 38.4C101.486 38.4 102.592 37.92 103.499 36.96C104.432 36 104.899 34.6267 104.899 32.84C104.899 31.0533 104.446 29.68 103.539 28.72C102.659 27.76 101.566 27.28 100.259 27.28C98.9257 27.28 97.8191 27.76 96.9391 28.72C96.0591 29.6533 95.6191 31.0267 95.6191 32.84C95.6191 34.6267 96.0457 36 96.8991 36.96C97.7791 37.92 98.8724 38.4 100.179 38.4ZM130.804 14.4V44H123.964V14.4H130.804ZM139.201 19.36C138.001 19.36 137.015 19.0133 136.241 18.32C135.495 17.6 135.121 16.72 135.121 15.68C135.121 14.6133 135.495 13.7333 136.241 13.04C137.015 12.32 138.001 11.96 139.201 11.96C140.375 11.96 141.335 12.32 142.081 13.04C142.855 13.7333 143.241 14.6133 143.241 15.68C143.241 16.72 142.855 17.6 142.081 18.32C141.335 19.0133 140.375 19.36 139.201 19.36ZM142.601 21.68V44H135.761V21.68H142.601ZM156.638 44.32C154.691 44.32 152.958 43.9867 151.438 43.32C149.918 42.6533 148.718 41.7467 147.838 40.6C146.958 39.4267 146.465 38.12 146.358 36.68H153.118C153.198 37.4533 153.558 38.08 154.198 38.56C154.838 39.04 155.625 39.28 156.558 39.28C157.411 39.28 158.065 39.12 158.518 38.8C158.998 38.4533 159.238 38.0133 159.238 37.48C159.238 36.84 158.905 36.3733 158.238 36.08C157.571 35.76 156.491 35.4133 154.998 35.04C153.398 34.6667 152.065 34.28 150.998 33.88C149.931 33.4533 149.011 32.8 148.238 31.92C147.465 31.0133 147.078 29.8 147.078 28.28C147.078 27 147.425 25.84 148.118 24.8C148.838 23.7333 149.878 22.8933 151.238 22.28C152.625 21.6667 154.265 21.36 156.158 21.36C158.958 21.36 161.158 22.0533 162.758 23.44C164.385 24.8267 165.318 26.6667 165.558 28.96H159.238C159.131 28.1867 158.785 27.5733 158.198 27.12C157.638 26.6667 156.891 26.44 155.958 26.44C155.158 26.44 154.545 26.6 154.118 26.92C153.691 27.2133 153.478 27.6267 153.478 28.16C153.478 28.8 153.811 29.28 154.478 29.6C155.171 29.92 156.238 30.24 157.678 30.56C159.331 30.9867 160.678 31.4133 161.718 31.84C162.758 32.24 163.665 32.9067 164.438 33.84C165.238 34.7467 165.651 35.9733 165.678 37.52C165.678 38.8267 165.305 40 164.558 41.04C163.838 42.0533 162.785 42.8533 161.398 43.44C160.038 44.0267 158.451 44.32 156.638 44.32ZM182.303 38.2V44H178.823C176.343 44 174.409 43.4 173.023 42.2C171.636 40.9733 170.943 38.9867 170.943 36.24V27.36H168.223V21.68H170.943V16.24H177.783V21.68H182.263V27.36H177.783V36.32C177.783 36.9867 177.943 37.4667 178.263 37.76C178.583 38.0533 179.116 38.2 179.863 38.2H182.303Z" fill="white"/>
<path d="M190.956 21.1052L201.466 37.7952L230.53 6.40245" stroke="#1D46CA" stroke-width="7"/>
</svg>
